<?xml version="1.0" encoding="UTF-8" standalone="no"?>
<svg viewBox="0 0 448 448" width="448" height="448" xmlns="http://www.w3.org/2000/svg">
  <path d="M 420,0 H 30 C 15,0 0,15 0,30 v 390 c 0,15 15,28 30,28 h 390 c 15,0 28,-13 28,-28 V 30 C 448,15 435,0 420,0 Z m -68.9,158.8 c 0.2,2.8 0.2,5.7 0.2,8.5 0,86.7 -66,186.6 -186.6,186.6 -37.2,0 -71.7,-10.8 -100.7,-29.4 5.3,0.6 10.4,0.8 15.8,0.8 30.7,0 58.9,-10.4 81.4,-28 -28.8,-0.6 -53,-19.5 -61.3,-45.5 10.1,1.5 19.2,1.5 29.6,-1.2 C 99.5,244.5 77,218.1 77,186.2 v -0.8 c 8.7,4.9 18.9,7.9 29.6,8.3 -18.271518,-12.15363 -29.235926,-32.65557 -29.2,-54.6 0,-12.2 3.2,-23.4 8.9,-33.1 32.3,39.8 80.8,65.8 135.2,68.6 -9.3,-44.5 24,-80.6 64,-80.6 18.9,0 35.9,7.9 47.9,20.7 14.8,-2.8 29,-8.3 41.6,-15.8 -4.9,15.2 -15.2,28 -28.8,36.1 13.2,-1.4 26,-5.1 37.8,-10.2 -8.9,13.1 -20.1,24.7 -32.9,34 z" fill="#000000" />
</svg>
